# xmcd
#
# Track frame offsets:
#	182
#	14235
#	31797
#	49150
#	64812
#	82605
#	101867
#	122507
#	137670
#	152460
#	172077
#	185795
#	201475
#	219100
#	238875
#
# Disc length: 3392 seconds
#
# Revision: 14
# Processed by: cddbd v1.5.1PL0 Copyright (c) Steve Scherf et al.
# Submitted via: audiograbber 1.83.01
#
DISCID=d20d3e0f
DTITLE=Reba McEntire - Greatest Hits - Vol. III (I'm A Survivor)
DYEAR=2001
DGENRE=Country
TTITLE0=I'm A Survivor
TTITLE1=Forever Love
TTITLE2=The Heart Is A Lonely Hunter
TTITLE3=And Still
TTITLE4=If You See Him, If You See Her (With Brooks and Dunn)
TTITLE5=The Night The Lights Went Out In Georgia
TTITLE6=Fallin' Out Of Love
TTITLE7=The Heart Won't Lie (Duet With Vince Gill)
TTITLE8=Take It Back
TTITLE9=She Thinks His Name Was John
TTITLE10=The Fear Of Being Alone
TTITLE11=Why Haven't I Heard From You
TTITLE12=One Honest Heart
TTITLE13=Myself Without You
TTITLE14=Sweet Music Man
EXTD=YEAR: 2001 ID3G: 2
EXTT0=
EXTT1=
EXTT2=
EXTT3=
EXTT4=
EXTT5=
EXTT6=
EXTT7=
EXTT8=
EXTT9=
EXTT10=
EXTT11=
EXTT12=
EXTT13=
EXTT14=
PLAYORDER=
